<?xml version="1.0" encoding="utf-8"?>
<!-- Generator: Adobe Illustrator 23.0.5, SVG Export Plug-In . SVG Version: 6.00 Build 0)  -->
<svg version="1.1" id="Layer_1" xmlns="http://www.w3.org/2000/svg" xmlns:xlink="http://www.w3.org/1999/xlink" x="0px" y="0px"
	 viewBox="0 0 586 122" style="enable-background:new 0 0 586 122;" xml:space="preserve">
<style type="text/css">
	.st0{fill:#754C24;stroke:#754C24;stroke-miterlimit:10;}
	.st1{stroke:#000000;stroke-miterlimit:10;}
</style>
<g>
	<path class="st0" d="M476.07,93.45c-4.71,7.05-8.87,13.79-13.55,20.02c-1.52,2.02-4.36,3.69-6.68,3.84
		c-7.52,0.48-15.08,0.37-22.61,0.05c-1.85-0.08-4.62-1.34-5.22-2.91c-0.71-1.85-0.18-5.2,0.95-6.94
		c14.07-21.52,28.32-42.89,42.59-64.24c2.95-4.41,6.03-4.37,9.04,0.02c4.11,5.98,8.07,12.1,12.11,18.14
		c1.98,2.96,2.46,6.04-0.34,8.52c-2.8,2.48-5.34,1.28-7.34-1.7c-2.84-4.22-5.65-8.47-8.95-13.41
		c-11.36,17.09-22.48,33.82-34.2,51.44c4.74,0,8.53,0.22,12.28-0.14c1.11-0.11,2.29-1.68,3.11-2.88c4.69-6.91,9.24-13.92,13.9-20.85
		c3.44-5.11,6.38-5.09,9.84,0.05c4.32,6.41,8.76,12.73,12.79,19.37c2.09,3.45,4.38,5.11,8.09,4.58c2.37-0.33,4.8-0.06,8.32-0.06
		c-1.71-2.65-2.88-4.51-4.09-6.35c-3.76-5.68-7.7-11.21-11.2-17.09c-1.02-1.71-1.59-4.87-0.85-6.49c0.75-1.65,3.29-2.4,5.16-3.18
		c1-0.42,2.25-0.06,3.39-0.07c7.59-0.05,10.88-3.76,10.91-12.4c0.03-10.01,0.04-20.02,0-30.04c-0.03-8.57-3.35-12.38-10.97-12.4
		c-17.64-0.05-35.29-0.04-52.93,0.01c-7.82,0.02-10.98,3.76-11,12.83c-0.02,10.01-0.06,20.03,0.02,30.04
		c0.03,3.84-0.79,6.83-4.66,7.18c-3.25,0.3-5.02-2.23-5.04-7.22c-0.05-10.66-0.15-21.32,0.03-31.97
		C429.19,15.88,437,7.29,448.8,7.24c18.07-0.07,36.14-0.07,54.21-0.01c12.52,0.04,20.16,8.84,20.18,23.06c0.01,9.37,0,18.73,0,28.1
		c0,14.85-2.92,19.95-15.17,26.07c4.91,7.4,9.94,14.6,14.54,22.13c1.28,2.09,2.39,5.81,1.58,7.64c-0.81,1.83-4.09,3-6.35,3.12
		c-6.95,0.39-13.94-0.04-20.91,0.22c-3.54,0.13-5.84-1.37-7.85-4.55C484.97,106.6,480.68,100.38,476.07,93.45z"/>
	<g>
		<path d="M36.86,46.79c-1.08,0-2,0.28-2.75,0.83c-0.76,0.56-1.36,1.25-1.8,2.08c-0.44,0.83-0.76,1.77-0.96,2.81
			c-0.2,1.04-0.29,2.08-0.29,3.12h26.66v17.17H31.05v45.28H18.94V72.81H8.58V55.64h10.35v-5.1c0-2.36,0.27-4.7,0.81-7.03
			c0.54-2.32,1.33-4.39,2.39-6.19c1.05-1.8,2.39-3.28,4-4.42s3.48-1.72,5.58-1.72h2.06c1.27,0,2.88,0.14,4.81,0.42
			c1.93,0.28,4,0.64,6.21,1.09c2.2,0.45,4.43,1.02,6.68,1.72c2.25,0.69,4.33,1.46,6.24,2.29v13.95c-1.91-0.83-3.82-1.51-5.73-2.03
			c-1.91-0.52-3.72-0.9-5.43-1.15c-1.71-0.24-3.27-0.42-4.66-0.52c-1.4-0.1-2.53-0.16-3.42-0.16H36.86z"/>
		<path d="M76,89.57c0,3.96,0.76,6.83,2.28,8.64c1.52,1.81,3.67,2.71,6.46,2.71h15.42c3.08,0,5.76-0.35,8.04-1.04
			c2.28-0.69,4.42-2.01,6.43-3.96V55.64h12.12v62.45h-12.12l1.4-12.18h-1.47c-0.2,1.74-0.72,3.35-1.58,4.84
			c-0.86,1.49-1.95,2.79-3.27,3.9c-1.32,1.11-2.84,1.96-4.55,2.55c-1.71,0.59-3.52,0.88-5.43,0.88H80.33
			c-2.25,0-4.38-0.61-6.39-1.82c-2.01-1.21-3.76-2.86-5.25-4.94c-1.49-2.08-2.67-4.54-3.52-7.39c-0.86-2.84-1.29-5.9-1.29-9.16
			V55.64H76V89.57z"/>
		<path d="M180.57,72.81h-22.25c-2.79,0-5.24,0.42-7.34,1.25c-2.11,0.83-4.09,2.08-5.95,3.75v40.28h-12.12V55.64h12.12l-1.4,13.43
			h1.47c0.2-1.73,0.71-3.42,1.54-5.05c0.83-1.63,1.91-3.07,3.23-4.32s2.83-2.24,4.52-2.97c1.69-0.73,3.49-1.09,5.4-1.09h20.78V72.81
			z"/>
		<path d="M237.48,84.16c0-3.96-0.76-6.83-2.28-8.64c-1.52-1.8-3.67-2.71-6.46-2.71h-15.42c-3.08,0-5.76,0.33-8.04,0.99
			c-2.28,0.66-4.42,2-6.43,4.01v40.28h-12.12V55.64h12.12l-1.4,12.18h1.47c0.2-1.8,0.72-3.43,1.58-4.89
			c0.86-1.46,1.95-2.74,3.27-3.85c1.32-1.11,2.84-1.96,4.55-2.55c1.71-0.59,3.52-0.88,5.43-0.88h19.39c2.3,0,4.44,0.61,6.43,1.82
			c1.98,1.21,3.72,2.86,5.21,4.94c1.49,2.08,2.67,4.54,3.52,7.39c0.86,2.85,1.29,5.9,1.29,9.16v39.13h-12.12V84.16z"/>
		<path d="M257.53,49.4V34.82h12.12V49.4H257.53z M257.53,118.09V55.64h12.12v62.45H257.53z"/>
		<path d="M336.77,75.31c-2.25-2.08-4.3-3.47-6.13-4.16c-1.84-0.69-3.63-1.04-5.4-1.04h-33.19c-1.42,0-2.67,0.38-3.75,1.14
			c-1.08,0.76-1.62,2.22-1.62,4.37c0,1.25,0.42,2.26,1.25,3.02c0.83,0.76,2.08,1.15,3.75,1.15h31.28c2.3,0,4.32,0.31,6.06,0.94
			c1.74,0.62,3.18,1.7,4.33,3.23c1.15,1.53,2.02,3.52,2.61,5.98c0.59,2.46,0.88,5.53,0.88,9.21c0,2.71-0.36,5.22-1.07,7.55
			c-0.71,2.33-1.69,4.32-2.94,5.98c-1.25,1.67-2.71,2.98-4.37,3.96c-1.67,0.97-3.45,1.46-5.36,1.46h-35.18
			c-1.32,0-2.95-0.47-4.88-1.41c-1.93-0.94-4-2.38-6.21-4.32V98c2.2,1.94,4.32,3.4,6.35,4.37c2.03,0.97,3.61,1.46,4.74,1.46h33.34
			c1.52,0,2.84-0.4,3.96-1.2c1.13-0.8,1.69-2.1,1.69-3.9c0-1.18-0.5-2.2-1.51-3.07c-1-0.87-2.36-1.3-4.08-1.3h-30.77
			c-2.35,0-4.39-0.33-6.13-0.99c-1.74-0.66-3.17-1.77-4.3-3.33c-1.13-1.56-1.96-3.61-2.5-6.14c-0.54-2.53-0.81-5.64-0.81-9.32
			c0-2.71,0.35-5.22,1.06-7.55c0.71-2.32,1.69-4.32,2.94-5.99c1.25-1.67,2.71-2.98,4.37-3.96c1.66-0.97,3.45-1.46,5.36-1.46h34.66
			c1.86,0,3.68,0.33,5.47,0.99c1.79,0.66,3.81,2.03,6.06,4.11V75.31z"/>
	</g>
	<g>
		<path d="M559.25,102.65h1.56c0.66,0,1.68-0.09,3.08-0.26c1.39-0.17,2.98-0.49,4.77-0.94c1.79-0.45,3.7-1.09,5.73-1.93
			c2.03-0.83,3.96-1.91,5.8-3.23v15.3c-1.79,1.25-3.81,2.34-6.04,3.28c-2.24,0.94-4.48,1.7-6.72,2.29
			c-2.24,0.59-4.35,1.04-6.33,1.35c-1.98,0.31-3.58,0.47-4.81,0.47h-1.98c-1.84,0-3.46-0.52-4.88-1.56
			c-1.41-1.04-2.6-2.39-3.57-4.06s-1.71-3.55-2.23-5.67c-0.52-2.12-0.78-4.28-0.78-6.5V73.72h-9.97V56.55h9.97V32.09h11.67v24.45
			h25.66v17.17h-25.66v17.27c0,4.44,0.43,7.49,1.31,9.16C556.69,101.82,557.83,102.65,559.25,102.65z"/>
	</g>
	<path class="st1" d="M343.03,9.55L354.27,6c2.37,10.25,4.93,19.95,6.64,29.87c0.85,4.94,1.21,9.95,1.53,14.96
		c0.18,2.74,1.18,3.28,3.59,3.27c15.87-0.08,31.74-0.04,47.61-0.04c0.24,0,0.47,0,0.71,0c1.86,0,3.42,1.48,3.43,3.34
		c0,0.01,0,0.02,0,0.03c0.01,18.86-0.05,37.72,0.07,56.58c0.02,2.94-0.94,3.67-3.73,3.64c-7.83-0.1-7.83,0.02-7.83-7.8
		c0-3.08,0-6.16,0-9.33c-0.9-0.15-1.44-0.32-1.99-0.33c-14.14-0.02-28.29,0.04-42.43-0.08c-2.31-0.02-2.9,1.08-3.36,2.93
		c-1.34,5.33-2.78,10.63-4.27,16.27c-3.93-1.2-7.48-2.29-11.31-3.46C354.48,80.36,354.48,45.15,343.03,9.55z M406.06,65.86
		c-14.4,0-28.57,0-42.96,0c-0.61,7.65-1.2,15.13-1.81,22.83c15.03,0,29.79,0,44.77,0C406.06,81.04,406.06,73.54,406.06,65.86z"/>
</g>
<g>
</g>
<g>
</g>
<g>
</g>
<g>
</g>
<g>
</g>
<g>
</g>
<g>
</g>
<g>
</g>
<g>
</g>
<g>
</g>
<g>
</g>
<g>
</g>
<g>
</g>
<g>
</g>
<g>
</g>
</svg>
