<svg xmlns="http://www.w3.org/2000/svg" width="45" height="27.612" viewBox="0 0 45 27.612">
  <g id="Group_55623" data-name="Group 55623" transform="translate(-1106.395 -397.948)">
    <path id="Path_330" data-name="Path 330" d="M376.395,82.762a13.5,13.5,0,0,1-8.853,3.3,13.807,13.807,0,0,1,0-27.612,13.5,13.5,0,0,1,8.853,3.3,13.5,13.5,0,0,1,8.852-3.3,13.807,13.807,0,0,1,0,27.612A13.5,13.5,0,0,1,376.395,82.762Z" transform="translate(752.5 339.5)" fill="#ed0006" fill-rule="evenodd"/>
    <path id="Path_331" data-name="Path 331" d="M376.395,82.762a13.911,13.911,0,0,0,0-21.016,13.5,13.5,0,0,1,8.852-3.3,13.807,13.807,0,0,1,0,27.612A13.5,13.5,0,0,1,376.395,82.762Z" transform="translate(752.5 339.5)" fill="#f9a000" fill-rule="evenodd"/>
    <path id="Path_332" data-name="Path 332" d="M376.395,61.746a13.911,13.911,0,0,1,0,21.016,13.911,13.911,0,0,1,0-21.016Z" transform="translate(752.5 339.5)" fill="#ff5e00" fill-rule="evenodd"/>
  </g>
</svg>
