<svg xmlns="http://www.w3.org/2000/svg" width="49" height="15.638" viewBox="0 0 49 15.638">
  <path id="Path_334" data-name="Path 334" d="M21.25,32.516H17.01L13.83,20.385a1.958,1.958,0,0,0-.943-1.284A13.8,13.8,0,0,0,9,17.817V17.35h6.831A1.78,1.78,0,0,1,17.6,18.866l1.65,8.751L23.488,17.35H27.61Zm8.717,0h-4l3.3-15.167h4Zm8.479-10.965a1.552,1.552,0,0,1,1.65-1.284,7.463,7.463,0,0,1,3.887.7l.707-3.266A10.138,10.138,0,0,0,41.04,17c-3.887,0-6.716,2.1-6.716,5.017,0,2.218,2,3.383,3.418,4.084,1.53.7,2.119,1.167,2,1.866,0,1.049-1.178,1.517-2.355,1.517a10.1,10.1,0,0,1-4.123-.934l-.707,3.267a11.556,11.556,0,0,0,4.358.817c4.359.115,7.067-1.984,7.067-5.134C43.984,23.533,38.447,23.3,38.447,21.551ZM58,32.516,54.82,17.35H51.4a1.772,1.772,0,0,0-1.65,1.167l-5.889,14h4.123l.823-2.216h5.066l.471,2.216ZM51.994,21.434,53.17,27.15h-3.3Z" transform="translate(-9 -17)" fill="#172b85" fill-rule="evenodd"/>
</svg>
